<mxfile host="app.diagrams.net" modified="2021-03-12T07:02:35.018Z" agent="5.0 (Windows NT 10.0; Win64; x64) AppleWebKit/537.36 (KHTML, like Gecko) Chrome/88.0.4324.104 Safari/537.36" etag="PykgaKelJlmoyYllgMYk" version="14.4.7" type="github">
  <diagram name="异业+通信组合权益订单文件续订" id="13e1069c-82ec-6db2-03f1-153e76fe0fe0">
    <mxGraphModel dx="1662" dy="762" grid="1" gridSize="10" guides="1" tooltips="1" connect="1" arrows="1" fold="1" page="1" pageScale="1" pageWidth="1100" pageHeight="850" background="#ffffff" math="0" shadow="0">
      <root>
        <mxCell id="0" />
        <mxCell id="1" parent="0" />
        <mxCell id="XnMBn2k18ZfYZBOnFWAC-1" value="异业+通信组合权益订单文件续订" style="shape=umlFrame;whiteSpace=wrap;html=1;width=120;height=30;boundedLbl=1;verticalAlign=middle;align=left;spacingLeft=5;" vertex="1" parent="1">
          <mxGeometry x="53" y="20" width="960" height="4580" as="geometry" />
        </mxCell>
        <mxCell id="XnMBn2k18ZfYZBOnFWAC-2" value="权益平台" style="shape=umlLifeline;perimeter=lifelinePerimeter;whiteSpace=wrap;html=1;container=1;collapsible=0;recursiveResize=0;outlineConnect=0;rounded=1;shadow=0;comic=0;labelBackgroundColor=none;strokeWidth=1;fontFamily=Verdana;fontSize=12;align=center;" vertex="1" parent="1">
          <mxGeometry x="453" y="80" width="100" height="4480" as="geometry" />
        </mxCell>
        <mxCell id="XnMBn2k18ZfYZBOnFWAC-3" value="" style="html=1;points=[];perimeter=orthogonalPerimeter;rounded=0;shadow=0;comic=0;labelBackgroundColor=none;strokeWidth=1;fontFamily=Verdana;fontSize=12;align=center;" vertex="1" parent="XnMBn2k18ZfYZBOnFWAC-2">
          <mxGeometry x="45" y="100" width="10" height="390" as="geometry" />
        </mxCell>
        <mxCell id="XnMBn2k18ZfYZBOnFWAC-4" value="MYSQL" style="shape=umlLifeline;perimeter=lifelinePerimeter;whiteSpace=wrap;html=1;container=1;collapsible=0;recursiveResize=0;outlineConnect=0;rounded=1;shadow=0;comic=0;labelBackgroundColor=none;strokeWidth=1;fontFamily=Verdana;fontSize=12;align=center;" vertex="1" parent="1">
          <mxGeometry x="773" y="80" width="100" height="4480" as="geometry" />
        </mxCell>
        <mxCell id="XnMBn2k18ZfYZBOnFWAC-5" value="" style="html=1;points=[];perimeter=orthogonalPerimeter;rounded=0;shadow=0;comic=0;labelBackgroundColor=none;strokeWidth=1;fontFamily=Verdana;fontSize=12;align=center;" vertex="1" parent="XnMBn2k18ZfYZBOnFWAC-4">
          <mxGeometry x="45" y="120" width="10" height="110" as="geometry" />
        </mxCell>
        <mxCell id="XnMBn2k18ZfYZBOnFWAC-79" value="" style="html=1;points=[];perimeter=orthogonalPerimeter;" vertex="1" parent="XnMBn2k18ZfYZBOnFWAC-4">
          <mxGeometry x="45" y="330" width="10" height="80" as="geometry" />
        </mxCell>
        <mxCell id="XnMBn2k18ZfYZBOnFWAC-6" value="权益平台定时任务模块" style="shape=umlLifeline;perimeter=lifelinePerimeter;whiteSpace=wrap;html=1;container=1;collapsible=0;recursiveResize=0;outlineConnect=0;rounded=1;shadow=0;comic=0;labelBackgroundColor=none;strokeWidth=1;fontFamily=Verdana;fontSize=12;align=center;" vertex="1" parent="1">
          <mxGeometry x="133" y="80" width="100" height="4480" as="geometry" />
        </mxCell>
        <mxCell id="XnMBn2k18ZfYZBOnFWAC-7" value="" style="html=1;points=[];perimeter=orthogonalPerimeter;rounded=0;shadow=0;comic=0;labelBackgroundColor=none;strokeWidth=1;fontFamily=Verdana;fontSize=12;align=center;" vertex="1" parent="XnMBn2k18ZfYZBOnFWAC-6">
          <mxGeometry x="45" y="100" width="10" height="4320" as="geometry" />
        </mxCell>
        <mxCell id="XnMBn2k18ZfYZBOnFWAC-8" value="连接sftp拉取权益组合包续订文件" style="html=1;verticalAlign=bottom;endArrow=block;entryX=0;entryY=0;labelBackgroundColor=none;fontFamily=Verdana;fontSize=12;edgeStyle=elbowEdgeStyle;elbow=vertical;" edge="1" parent="1" source="XnMBn2k18ZfYZBOnFWAC-7" target="XnMBn2k18ZfYZBOnFWAC-3">
          <mxGeometry relative="1" as="geometry">
            <mxPoint x="433" y="190" as="sourcePoint" />
          </mxGeometry>
        </mxCell>
        <mxCell id="XnMBn2k18ZfYZBOnFWAC-9" value="根据权益组合包续订文件信息读取数据库" style="html=1;verticalAlign=bottom;endArrow=block;entryX=0;entryY=0;labelBackgroundColor=none;fontFamily=Verdana;fontSize=12;edgeStyle=elbowEdgeStyle;elbow=vertical;" edge="1" parent="1" source="XnMBn2k18ZfYZBOnFWAC-3" target="XnMBn2k18ZfYZBOnFWAC-5">
          <mxGeometry relative="1" as="geometry">
            <mxPoint x="583" y="200" as="sourcePoint" />
          </mxGeometry>
        </mxCell>
        <mxCell id="XnMBn2k18ZfYZBOnFWAC-10" value="" style="html=1;verticalAlign=bottom;endArrow=open;dashed=1;endSize=8;" edge="1" parent="1">
          <mxGeometry relative="1" as="geometry">
            <mxPoint x="813" y="269" as="sourcePoint" />
            <mxPoint x="513" y="269" as="targetPoint" />
          </mxGeometry>
        </mxCell>
        <mxCell id="XnMBn2k18ZfYZBOnFWAC-20" value="" style="html=1;points=[];perimeter=orthogonalPerimeter;rounded=0;shadow=0;comic=0;labelBackgroundColor=none;strokeWidth=1;fontFamily=Verdana;fontSize=12;align=center;" vertex="1" parent="1">
          <mxGeometry x="498" y="660" width="10" height="180" as="geometry" />
        </mxCell>
        <mxCell id="XnMBn2k18ZfYZBOnFWAC-21" value="" style="html=1;points=[];perimeter=orthogonalPerimeter;rounded=0;shadow=0;comic=0;labelBackgroundColor=none;strokeWidth=1;fontFamily=Verdana;fontSize=12;align=center;" vertex="1" parent="1">
          <mxGeometry x="818" y="680" width="10" height="110" as="geometry" />
        </mxCell>
        <mxCell id="XnMBn2k18ZfYZBOnFWAC-22" value="输入权益组合包续订文件签名" style="html=1;verticalAlign=bottom;endArrow=block;entryX=0;entryY=0;labelBackgroundColor=none;fontFamily=Verdana;fontSize=12;edgeStyle=elbowEdgeStyle;elbow=vertical;" edge="1" parent="1" target="XnMBn2k18ZfYZBOnFWAC-20">
          <mxGeometry relative="1" as="geometry">
            <mxPoint x="188" y="660" as="sourcePoint" />
          </mxGeometry>
        </mxCell>
        <mxCell id="XnMBn2k18ZfYZBOnFWAC-23" value="读取数据库权益组合包文件签名信息" style="html=1;verticalAlign=bottom;endArrow=block;entryX=0;entryY=0;labelBackgroundColor=none;fontFamily=Verdana;fontSize=12;edgeStyle=elbowEdgeStyle;elbow=vertical;" edge="1" parent="1" source="XnMBn2k18ZfYZBOnFWAC-20" target="XnMBn2k18ZfYZBOnFWAC-21">
          <mxGeometry relative="1" as="geometry">
            <mxPoint x="583" y="680" as="sourcePoint" />
          </mxGeometry>
        </mxCell>
        <mxCell id="XnMBn2k18ZfYZBOnFWAC-24" value="" style="html=1;verticalAlign=bottom;endArrow=open;dashed=1;endSize=8;" edge="1" parent="1">
          <mxGeometry relative="1" as="geometry">
            <mxPoint x="813" y="748.9999999999998" as="sourcePoint" />
            <mxPoint x="513" y="748.9999999999998" as="targetPoint" />
          </mxGeometry>
        </mxCell>
        <mxCell id="XnMBn2k18ZfYZBOnFWAC-25" value="" style="html=1;verticalAlign=bottom;endArrow=open;dashed=1;endSize=8;entryX=1.2;entryY=0.387;entryDx=0;entryDy=0;entryPerimeter=0;" edge="1" parent="1">
          <mxGeometry relative="1" as="geometry">
            <mxPoint x="491" y="820" as="sourcePoint" />
            <mxPoint x="188" y="820.0099999999998" as="targetPoint" />
          </mxGeometry>
        </mxCell>
        <mxCell id="XnMBn2k18ZfYZBOnFWAC-26" value="输出权益组合包文件签名结果" style="edgeLabel;html=1;align=center;verticalAlign=middle;resizable=0;points=[];" vertex="1" connectable="0" parent="XnMBn2k18ZfYZBOnFWAC-25">
          <mxGeometry x="0.1023" y="-1" relative="1" as="geometry">
            <mxPoint x="6" y="-10.010000000000002" as="offset" />
          </mxGeometry>
        </mxCell>
        <mxCell id="XnMBn2k18ZfYZBOnFWAC-27" value="" style="html=1;points=[];perimeter=orthogonalPerimeter;rounded=0;shadow=0;comic=0;labelBackgroundColor=none;strokeWidth=1;fontFamily=Verdana;fontSize=12;align=center;" vertex="1" parent="1">
          <mxGeometry x="498" y="970" width="10" height="180" as="geometry" />
        </mxCell>
        <mxCell id="XnMBn2k18ZfYZBOnFWAC-28" value="" style="html=1;points=[];perimeter=orthogonalPerimeter;rounded=0;shadow=0;comic=0;labelBackgroundColor=none;strokeWidth=1;fontFamily=Verdana;fontSize=12;align=center;" vertex="1" parent="1">
          <mxGeometry x="818" y="990" width="10" height="110" as="geometry" />
        </mxCell>
        <mxCell id="XnMBn2k18ZfYZBOnFWAC-29" value="获取权益组合包续订文件" style="html=1;verticalAlign=bottom;endArrow=block;entryX=0;entryY=0;labelBackgroundColor=none;fontFamily=Verdana;fontSize=12;edgeStyle=elbowEdgeStyle;elbow=vertical;" edge="1" parent="1" target="XnMBn2k18ZfYZBOnFWAC-27">
          <mxGeometry relative="1" as="geometry">
            <mxPoint x="188" y="970" as="sourcePoint" />
          </mxGeometry>
        </mxCell>
        <mxCell id="XnMBn2k18ZfYZBOnFWAC-30" value="根据权益组合包文件内容读取数据库" style="html=1;verticalAlign=bottom;endArrow=block;entryX=0;entryY=0;labelBackgroundColor=none;fontFamily=Verdana;fontSize=12;edgeStyle=elbowEdgeStyle;elbow=vertical;" edge="1" parent="1" source="XnMBn2k18ZfYZBOnFWAC-27" target="XnMBn2k18ZfYZBOnFWAC-28">
          <mxGeometry relative="1" as="geometry">
            <mxPoint x="583" y="990" as="sourcePoint" />
          </mxGeometry>
        </mxCell>
        <mxCell id="XnMBn2k18ZfYZBOnFWAC-31" value="" style="html=1;verticalAlign=bottom;endArrow=open;dashed=1;endSize=8;" edge="1" parent="1">
          <mxGeometry relative="1" as="geometry">
            <mxPoint x="813" y="1058.9999999999998" as="sourcePoint" />
            <mxPoint x="513" y="1058.9999999999998" as="targetPoint" />
          </mxGeometry>
        </mxCell>
        <mxCell id="XnMBn2k18ZfYZBOnFWAC-32" value="" style="html=1;verticalAlign=bottom;endArrow=open;dashed=1;endSize=8;entryX=1.2;entryY=0.387;entryDx=0;entryDy=0;entryPerimeter=0;" edge="1" parent="1">
          <mxGeometry relative="1" as="geometry">
            <mxPoint x="491" y="1130" as="sourcePoint" />
            <mxPoint x="188" y="1130.0100000000002" as="targetPoint" />
          </mxGeometry>
        </mxCell>
        <mxCell id="XnMBn2k18ZfYZBOnFWAC-33" value="输出权益组合包告警异常信息" style="edgeLabel;html=1;align=center;verticalAlign=middle;resizable=0;points=[];" vertex="1" connectable="0" parent="XnMBn2k18ZfYZBOnFWAC-32">
          <mxGeometry x="0.1023" y="-1" relative="1" as="geometry">
            <mxPoint x="6" y="-10.010000000000002" as="offset" />
          </mxGeometry>
        </mxCell>
        <mxCell id="XnMBn2k18ZfYZBOnFWAC-34" value="" style="html=1;points=[];perimeter=orthogonalPerimeter;rounded=0;shadow=0;comic=0;labelBackgroundColor=none;strokeWidth=1;fontFamily=Verdana;fontSize=12;align=center;" vertex="1" parent="1">
          <mxGeometry x="498" y="1220" width="10" height="180" as="geometry" />
        </mxCell>
        <mxCell id="XnMBn2k18ZfYZBOnFWAC-35" value="" style="html=1;points=[];perimeter=orthogonalPerimeter;rounded=0;shadow=0;comic=0;labelBackgroundColor=none;strokeWidth=1;fontFamily=Verdana;fontSize=12;align=center;" vertex="1" parent="1">
          <mxGeometry x="818" y="1240" width="10" height="110" as="geometry" />
        </mxCell>
        <mxCell id="XnMBn2k18ZfYZBOnFWAC-36" value="输入权益组合包续订文件" style="html=1;verticalAlign=bottom;endArrow=block;entryX=0;entryY=0;labelBackgroundColor=none;fontFamily=Verdana;fontSize=12;edgeStyle=elbowEdgeStyle;elbow=vertical;" edge="1" parent="1" target="XnMBn2k18ZfYZBOnFWAC-34">
          <mxGeometry relative="1" as="geometry">
            <mxPoint x="188" y="1220" as="sourcePoint" />
          </mxGeometry>
        </mxCell>
        <mxCell id="XnMBn2k18ZfYZBOnFWAC-37" value="读取数据库权益组合包续订信息" style="html=1;verticalAlign=bottom;endArrow=block;entryX=0;entryY=0;labelBackgroundColor=none;fontFamily=Verdana;fontSize=12;edgeStyle=elbowEdgeStyle;elbow=vertical;" edge="1" parent="1" source="XnMBn2k18ZfYZBOnFWAC-34" target="XnMBn2k18ZfYZBOnFWAC-35">
          <mxGeometry relative="1" as="geometry">
            <mxPoint x="583" y="1240" as="sourcePoint" />
          </mxGeometry>
        </mxCell>
        <mxCell id="XnMBn2k18ZfYZBOnFWAC-38" value="" style="html=1;verticalAlign=bottom;endArrow=open;dashed=1;endSize=8;" edge="1" parent="1">
          <mxGeometry relative="1" as="geometry">
            <mxPoint x="813" y="1309" as="sourcePoint" />
            <mxPoint x="513" y="1309" as="targetPoint" />
          </mxGeometry>
        </mxCell>
        <mxCell id="XnMBn2k18ZfYZBOnFWAC-39" value="输出历史数据清洗账号信息" style="html=1;verticalAlign=bottom;endArrow=open;dashed=1;endSize=8;entryX=1.2;entryY=0.387;entryDx=0;entryDy=0;entryPerimeter=0;" edge="1" parent="1">
          <mxGeometry relative="1" as="geometry">
            <mxPoint x="491" y="1380" as="sourcePoint" />
            <mxPoint x="188" y="1380.0100000000002" as="targetPoint" />
          </mxGeometry>
        </mxCell>
        <mxCell id="XnMBn2k18ZfYZBOnFWAC-40" value="输出权益组合包清洗结果" style="edgeLabel;html=1;align=center;verticalAlign=middle;resizable=0;points=[];" vertex="1" connectable="0" parent="XnMBn2k18ZfYZBOnFWAC-39">
          <mxGeometry x="0.1023" y="-1" relative="1" as="geometry">
            <mxPoint x="6" y="-10.010000000000002" as="offset" />
          </mxGeometry>
        </mxCell>
        <mxCell id="XnMBn2k18ZfYZBOnFWAC-41" value="" style="html=1;points=[];perimeter=orthogonalPerimeter;rounded=0;shadow=0;comic=0;labelBackgroundColor=none;strokeWidth=1;fontFamily=Verdana;fontSize=12;align=center;" vertex="1" parent="1">
          <mxGeometry x="498" y="1480" width="10" height="180" as="geometry" />
        </mxCell>
        <mxCell id="XnMBn2k18ZfYZBOnFWAC-42" value="" style="html=1;points=[];perimeter=orthogonalPerimeter;rounded=0;shadow=0;comic=0;labelBackgroundColor=none;strokeWidth=1;fontFamily=Verdana;fontSize=12;align=center;" vertex="1" parent="1">
          <mxGeometry x="818" y="1500" width="10" height="110" as="geometry" />
        </mxCell>
        <mxCell id="XnMBn2k18ZfYZBOnFWAC-43" value="输入权益组合包mq连接通道地址" style="html=1;verticalAlign=bottom;endArrow=block;entryX=0;entryY=0;labelBackgroundColor=none;fontFamily=Verdana;fontSize=12;edgeStyle=elbowEdgeStyle;elbow=vertical;" edge="1" parent="1" target="XnMBn2k18ZfYZBOnFWAC-41">
          <mxGeometry relative="1" as="geometry">
            <mxPoint x="188" y="1480" as="sourcePoint" />
          </mxGeometry>
        </mxCell>
        <mxCell id="XnMBn2k18ZfYZBOnFWAC-44" value="根据权益组合包通道连接地址读取数据库信息" style="html=1;verticalAlign=bottom;endArrow=block;entryX=0;entryY=0;labelBackgroundColor=none;fontFamily=Verdana;fontSize=12;edgeStyle=elbowEdgeStyle;elbow=vertical;" edge="1" parent="1" source="XnMBn2k18ZfYZBOnFWAC-41" target="XnMBn2k18ZfYZBOnFWAC-42">
          <mxGeometry relative="1" as="geometry">
            <mxPoint x="583" y="1500" as="sourcePoint" />
          </mxGeometry>
        </mxCell>
        <mxCell id="XnMBn2k18ZfYZBOnFWAC-45" value="" style="html=1;verticalAlign=bottom;endArrow=open;dashed=1;endSize=8;" edge="1" parent="1">
          <mxGeometry relative="1" as="geometry">
            <mxPoint x="813" y="1569" as="sourcePoint" />
            <mxPoint x="513" y="1569" as="targetPoint" />
          </mxGeometry>
        </mxCell>
        <mxCell id="XnMBn2k18ZfYZBOnFWAC-46" value="" style="html=1;verticalAlign=bottom;endArrow=open;dashed=1;endSize=8;entryX=1.2;entryY=0.387;entryDx=0;entryDy=0;entryPerimeter=0;" edge="1" parent="1">
          <mxGeometry relative="1" as="geometry">
            <mxPoint x="491" y="1640" as="sourcePoint" />
            <mxPoint x="188" y="1640.0100000000002" as="targetPoint" />
          </mxGeometry>
        </mxCell>
        <mxCell id="XnMBn2k18ZfYZBOnFWAC-47" value="输出清洗后的权益组合包续订数据" style="edgeLabel;html=1;align=center;verticalAlign=middle;resizable=0;points=[];" vertex="1" connectable="0" parent="XnMBn2k18ZfYZBOnFWAC-46">
          <mxGeometry x="0.1023" y="-1" relative="1" as="geometry">
            <mxPoint x="6" y="-10.010000000000002" as="offset" />
          </mxGeometry>
        </mxCell>
        <mxCell id="XnMBn2k18ZfYZBOnFWAC-48" value="" style="html=1;points=[];perimeter=orthogonalPerimeter;rounded=0;shadow=0;comic=0;labelBackgroundColor=none;strokeWidth=1;fontFamily=Verdana;fontSize=12;align=center;" vertex="1" parent="1">
          <mxGeometry x="498" y="1720" width="10" height="180" as="geometry" />
        </mxCell>
        <mxCell id="XnMBn2k18ZfYZBOnFWAC-49" value="" style="html=1;points=[];perimeter=orthogonalPerimeter;rounded=0;shadow=0;comic=0;labelBackgroundColor=none;strokeWidth=1;fontFamily=Verdana;fontSize=12;align=center;" vertex="1" parent="1">
          <mxGeometry x="818" y="1740" width="10" height="110" as="geometry" />
        </mxCell>
        <mxCell id="XnMBn2k18ZfYZBOnFWAC-50" value="输入清洗后的权益组合包续订数据" style="html=1;verticalAlign=bottom;endArrow=block;entryX=0;entryY=0;labelBackgroundColor=none;fontFamily=Verdana;fontSize=12;edgeStyle=elbowEdgeStyle;elbow=vertical;" edge="1" parent="1" target="XnMBn2k18ZfYZBOnFWAC-48">
          <mxGeometry relative="1" as="geometry">
            <mxPoint x="188" y="1720" as="sourcePoint" />
          </mxGeometry>
        </mxCell>
        <mxCell id="XnMBn2k18ZfYZBOnFWAC-51" value="根据续订数据读取数据库权益组合包续订信息" style="html=1;verticalAlign=bottom;endArrow=block;entryX=0;entryY=0;labelBackgroundColor=none;fontFamily=Verdana;fontSize=12;edgeStyle=elbowEdgeStyle;elbow=vertical;" edge="1" parent="1" source="XnMBn2k18ZfYZBOnFWAC-48" target="XnMBn2k18ZfYZBOnFWAC-49">
          <mxGeometry relative="1" as="geometry">
            <mxPoint x="583" y="1740" as="sourcePoint" />
          </mxGeometry>
        </mxCell>
        <mxCell id="XnMBn2k18ZfYZBOnFWAC-52" value="" style="html=1;verticalAlign=bottom;endArrow=open;dashed=1;endSize=8;" edge="1" parent="1">
          <mxGeometry relative="1" as="geometry">
            <mxPoint x="813" y="1809" as="sourcePoint" />
            <mxPoint x="513" y="1809" as="targetPoint" />
          </mxGeometry>
        </mxCell>
        <mxCell id="XnMBn2k18ZfYZBOnFWAC-53" value="" style="html=1;verticalAlign=bottom;endArrow=open;dashed=1;endSize=8;entryX=1.2;entryY=0.387;entryDx=0;entryDy=0;entryPerimeter=0;" edge="1" parent="1">
          <mxGeometry relative="1" as="geometry">
            <mxPoint x="491" y="1880" as="sourcePoint" />
            <mxPoint x="188" y="1880.0100000000002" as="targetPoint" />
          </mxGeometry>
        </mxCell>
        <mxCell id="XnMBn2k18ZfYZBOnFWAC-54" value="输出权益组合包消费结果" style="edgeLabel;html=1;align=center;verticalAlign=middle;resizable=0;points=[];" vertex="1" connectable="0" parent="XnMBn2k18ZfYZBOnFWAC-53">
          <mxGeometry x="0.1023" y="-1" relative="1" as="geometry">
            <mxPoint x="6" y="-10.010000000000002" as="offset" />
          </mxGeometry>
        </mxCell>
        <mxCell id="XnMBn2k18ZfYZBOnFWAC-55" value="" style="html=1;points=[];perimeter=orthogonalPerimeter;rounded=0;shadow=0;comic=0;labelBackgroundColor=none;strokeWidth=1;fontFamily=Verdana;fontSize=12;align=center;" vertex="1" parent="1">
          <mxGeometry x="498" y="1960" width="10" height="180" as="geometry" />
        </mxCell>
        <mxCell id="XnMBn2k18ZfYZBOnFWAC-56" value="" style="html=1;points=[];perimeter=orthogonalPerimeter;rounded=0;shadow=0;comic=0;labelBackgroundColor=none;strokeWidth=1;fontFamily=Verdana;fontSize=12;align=center;" vertex="1" parent="1">
          <mxGeometry x="818" y="1980" width="10" height="110" as="geometry" />
        </mxCell>
        <mxCell id="XnMBn2k18ZfYZBOnFWAC-57" value="输入权益组合包权益组合编码" style="html=1;verticalAlign=bottom;endArrow=block;entryX=0;entryY=0;labelBackgroundColor=none;fontFamily=Verdana;fontSize=12;edgeStyle=elbowEdgeStyle;elbow=vertical;" edge="1" parent="1" target="XnMBn2k18ZfYZBOnFWAC-55">
          <mxGeometry relative="1" as="geometry">
            <mxPoint x="188" y="1960" as="sourcePoint" />
          </mxGeometry>
        </mxCell>
        <mxCell id="XnMBn2k18ZfYZBOnFWAC-58" value="读取数据库权益组合包权益组合信息" style="html=1;verticalAlign=bottom;endArrow=block;entryX=0;entryY=0;labelBackgroundColor=none;fontFamily=Verdana;fontSize=12;edgeStyle=elbowEdgeStyle;elbow=vertical;" edge="1" parent="1" source="XnMBn2k18ZfYZBOnFWAC-55" target="XnMBn2k18ZfYZBOnFWAC-56">
          <mxGeometry relative="1" as="geometry">
            <mxPoint x="583" y="1980" as="sourcePoint" />
          </mxGeometry>
        </mxCell>
        <mxCell id="XnMBn2k18ZfYZBOnFWAC-59" value="" style="html=1;verticalAlign=bottom;endArrow=open;dashed=1;endSize=8;" edge="1" parent="1">
          <mxGeometry relative="1" as="geometry">
            <mxPoint x="813" y="2049" as="sourcePoint" />
            <mxPoint x="513" y="2049" as="targetPoint" />
          </mxGeometry>
        </mxCell>
        <mxCell id="XnMBn2k18ZfYZBOnFWAC-60" value="" style="html=1;verticalAlign=bottom;endArrow=open;dashed=1;endSize=8;entryX=1.2;entryY=0.387;entryDx=0;entryDy=0;entryPerimeter=0;" edge="1" parent="1">
          <mxGeometry relative="1" as="geometry">
            <mxPoint x="491" y="2120" as="sourcePoint" />
            <mxPoint x="188" y="2120.0099999999998" as="targetPoint" />
          </mxGeometry>
        </mxCell>
        <mxCell id="XnMBn2k18ZfYZBOnFWAC-61" value="输出权益组合包权益组合数据" style="edgeLabel;html=1;align=center;verticalAlign=middle;resizable=0;points=[];" vertex="1" connectable="0" parent="XnMBn2k18ZfYZBOnFWAC-60">
          <mxGeometry x="0.1023" y="-1" relative="1" as="geometry">
            <mxPoint x="6" y="-10.010000000000002" as="offset" />
          </mxGeometry>
        </mxCell>
        <mxCell id="XnMBn2k18ZfYZBOnFWAC-62" value="" style="html=1;points=[];perimeter=orthogonalPerimeter;rounded=0;shadow=0;comic=0;labelBackgroundColor=none;strokeWidth=1;fontFamily=Verdana;fontSize=12;align=center;" vertex="1" parent="1">
          <mxGeometry x="498" y="2270" width="10" height="180" as="geometry" />
        </mxCell>
        <mxCell id="XnMBn2k18ZfYZBOnFWAC-63" value="" style="html=1;points=[];perimeter=orthogonalPerimeter;rounded=0;shadow=0;comic=0;labelBackgroundColor=none;strokeWidth=1;fontFamily=Verdana;fontSize=12;align=center;" vertex="1" parent="1">
          <mxGeometry x="818" y="2290" width="10" height="110" as="geometry" />
        </mxCell>
        <mxCell id="XnMBn2k18ZfYZBOnFWAC-64" value="输入权益组合包续订主订单编码" style="html=1;verticalAlign=bottom;endArrow=block;entryX=0;entryY=0;labelBackgroundColor=none;fontFamily=Verdana;fontSize=12;edgeStyle=elbowEdgeStyle;elbow=vertical;" edge="1" parent="1" target="XnMBn2k18ZfYZBOnFWAC-62">
          <mxGeometry relative="1" as="geometry">
            <mxPoint x="188" y="2270" as="sourcePoint" />
          </mxGeometry>
        </mxCell>
        <mxCell id="XnMBn2k18ZfYZBOnFWAC-65" value="根据权益组合包主订单编码读取数据库续订主订单信息" style="html=1;verticalAlign=bottom;endArrow=block;entryX=0;entryY=0;labelBackgroundColor=none;fontFamily=Verdana;fontSize=12;edgeStyle=elbowEdgeStyle;elbow=vertical;" edge="1" parent="1" source="XnMBn2k18ZfYZBOnFWAC-62" target="XnMBn2k18ZfYZBOnFWAC-63">
          <mxGeometry relative="1" as="geometry">
            <mxPoint x="583" y="2290" as="sourcePoint" />
          </mxGeometry>
        </mxCell>
        <mxCell id="XnMBn2k18ZfYZBOnFWAC-66" value="" style="html=1;verticalAlign=bottom;endArrow=open;dashed=1;endSize=8;" edge="1" parent="1">
          <mxGeometry relative="1" as="geometry">
            <mxPoint x="813" y="2359" as="sourcePoint" />
            <mxPoint x="513" y="2359" as="targetPoint" />
          </mxGeometry>
        </mxCell>
        <mxCell id="XnMBn2k18ZfYZBOnFWAC-67" value="" style="html=1;verticalAlign=bottom;endArrow=open;dashed=1;endSize=8;entryX=1.2;entryY=0.387;entryDx=0;entryDy=0;entryPerimeter=0;" edge="1" parent="1">
          <mxGeometry relative="1" as="geometry">
            <mxPoint x="491" y="2430" as="sourcePoint" />
            <mxPoint x="188" y="2430.01" as="targetPoint" />
          </mxGeometry>
        </mxCell>
        <mxCell id="XnMBn2k18ZfYZBOnFWAC-68" value="输出权益组合包续订主订单数据" style="edgeLabel;html=1;align=center;verticalAlign=middle;resizable=0;points=[];" vertex="1" connectable="0" parent="XnMBn2k18ZfYZBOnFWAC-67">
          <mxGeometry x="0.1023" y="-1" relative="1" as="geometry">
            <mxPoint x="6" y="-10.010000000000002" as="offset" />
          </mxGeometry>
        </mxCell>
        <mxCell id="XnMBn2k18ZfYZBOnFWAC-69" value="" style="html=1;points=[];perimeter=orthogonalPerimeter;rounded=0;shadow=0;comic=0;labelBackgroundColor=none;strokeWidth=1;fontFamily=Verdana;fontSize=12;align=center;" vertex="1" parent="1">
          <mxGeometry x="498" y="2520" width="10" height="180" as="geometry" />
        </mxCell>
        <mxCell id="XnMBn2k18ZfYZBOnFWAC-70" value="" style="html=1;points=[];perimeter=orthogonalPerimeter;rounded=0;shadow=0;comic=0;labelBackgroundColor=none;strokeWidth=1;fontFamily=Verdana;fontSize=12;align=center;" vertex="1" parent="1">
          <mxGeometry x="818" y="2540" width="10" height="110" as="geometry" />
        </mxCell>
        <mxCell id="XnMBn2k18ZfYZBOnFWAC-71" value="输入权益组合包续订记录编码" style="html=1;verticalAlign=bottom;endArrow=block;entryX=0;entryY=0;labelBackgroundColor=none;fontFamily=Verdana;fontSize=12;edgeStyle=elbowEdgeStyle;elbow=vertical;" edge="1" parent="1" target="XnMBn2k18ZfYZBOnFWAC-69">
          <mxGeometry relative="1" as="geometry">
            <mxPoint x="188" y="2520" as="sourcePoint" />
          </mxGeometry>
        </mxCell>
        <mxCell id="XnMBn2k18ZfYZBOnFWAC-72" value="根据权益组合包续订记录编码读取数据库续订记录信息" style="html=1;verticalAlign=bottom;endArrow=block;entryX=0;entryY=0;labelBackgroundColor=none;fontFamily=Verdana;fontSize=12;edgeStyle=elbowEdgeStyle;elbow=vertical;" edge="1" parent="1" source="XnMBn2k18ZfYZBOnFWAC-69" target="XnMBn2k18ZfYZBOnFWAC-70">
          <mxGeometry relative="1" as="geometry">
            <mxPoint x="583" y="2540" as="sourcePoint" />
          </mxGeometry>
        </mxCell>
        <mxCell id="XnMBn2k18ZfYZBOnFWAC-73" value="" style="html=1;verticalAlign=bottom;endArrow=open;dashed=1;endSize=8;" edge="1" parent="1">
          <mxGeometry relative="1" as="geometry">
            <mxPoint x="813" y="2609" as="sourcePoint" />
            <mxPoint x="513" y="2609" as="targetPoint" />
          </mxGeometry>
        </mxCell>
        <mxCell id="XnMBn2k18ZfYZBOnFWAC-74" value="输出权益组合包续订记录数据" style="html=1;verticalAlign=bottom;endArrow=open;dashed=1;endSize=8;entryX=1.2;entryY=0.387;entryDx=0;entryDy=0;entryPerimeter=0;" edge="1" parent="1">
          <mxGeometry relative="1" as="geometry">
            <mxPoint x="491" y="2680" as="sourcePoint" />
            <mxPoint x="188" y="2680.01" as="targetPoint" />
          </mxGeometry>
        </mxCell>
        <mxCell id="XnMBn2k18ZfYZBOnFWAC-75" value="连接sftp拉取权益组合包chk文件" style="html=1;verticalAlign=bottom;endArrow=block;" edge="1" parent="1">
          <mxGeometry width="80" relative="1" as="geometry">
            <mxPoint x="190" y="350" as="sourcePoint" />
            <mxPoint x="500" y="349" as="targetPoint" />
          </mxGeometry>
        </mxCell>
        <mxCell id="XnMBn2k18ZfYZBOnFWAC-80" value="根据权益组合包续订文件CHK读取数据库" style="html=1;verticalAlign=bottom;endArrow=block;entryX=0;entryY=0;exitX=1.2;exitY=0.59;exitDx=0;exitDy=0;exitPerimeter=0;" edge="1" target="XnMBn2k18ZfYZBOnFWAC-79" parent="1" source="XnMBn2k18ZfYZBOnFWAC-3">
          <mxGeometry relative="1" as="geometry">
            <mxPoint x="748" y="410" as="sourcePoint" />
          </mxGeometry>
        </mxCell>
        <mxCell id="XnMBn2k18ZfYZBOnFWAC-81" value="" style="html=1;verticalAlign=bottom;endArrow=open;dashed=1;endSize=8;exitX=0;exitY=0.95;" edge="1" source="XnMBn2k18ZfYZBOnFWAC-79" parent="1" target="XnMBn2k18ZfYZBOnFWAC-3">
          <mxGeometry relative="1" as="geometry">
            <mxPoint x="748" y="486" as="targetPoint" />
          </mxGeometry>
        </mxCell>
        <mxCell id="XnMBn2k18ZfYZBOnFWAC-82" value="输出权益组合包续订结果" style="html=1;verticalAlign=bottom;endArrow=open;dashed=1;endSize=8;" edge="1" parent="1" target="XnMBn2k18ZfYZBOnFWAC-7">
          <mxGeometry relative="1" as="geometry">
            <mxPoint x="498" y="550" as="sourcePoint" />
            <mxPoint x="418" y="550" as="targetPoint" />
          </mxGeometry>
        </mxCell>
        <mxCell id="XnMBn2k18ZfYZBOnFWAC-83" value="" style="html=1;points=[];perimeter=orthogonalPerimeter;rounded=0;shadow=0;comic=0;labelBackgroundColor=none;strokeWidth=1;fontFamily=Verdana;fontSize=12;align=center;" vertex="1" parent="1">
          <mxGeometry x="498" y="2790" width="10" height="180" as="geometry" />
        </mxCell>
        <mxCell id="XnMBn2k18ZfYZBOnFWAC-84" value="" style="html=1;points=[];perimeter=orthogonalPerimeter;rounded=0;shadow=0;comic=0;labelBackgroundColor=none;strokeWidth=1;fontFamily=Verdana;fontSize=12;align=center;" vertex="1" parent="1">
          <mxGeometry x="818" y="2810" width="10" height="110" as="geometry" />
        </mxCell>
        <mxCell id="XnMBn2k18ZfYZBOnFWAC-85" value="输入权益组合包续订子订单编码" style="html=1;verticalAlign=bottom;endArrow=block;entryX=0;entryY=0;labelBackgroundColor=none;fontFamily=Verdana;fontSize=12;edgeStyle=elbowEdgeStyle;elbow=vertical;" edge="1" parent="1" target="XnMBn2k18ZfYZBOnFWAC-83">
          <mxGeometry relative="1" as="geometry">
            <mxPoint x="188" y="2790" as="sourcePoint" />
          </mxGeometry>
        </mxCell>
        <mxCell id="XnMBn2k18ZfYZBOnFWAC-86" value="根据权益组合包续订子订单编码读取数据库续订子订单信息" style="html=1;verticalAlign=bottom;endArrow=block;entryX=0;entryY=0;labelBackgroundColor=none;fontFamily=Verdana;fontSize=12;edgeStyle=elbowEdgeStyle;elbow=vertical;" edge="1" parent="1" source="XnMBn2k18ZfYZBOnFWAC-83" target="XnMBn2k18ZfYZBOnFWAC-84">
          <mxGeometry relative="1" as="geometry">
            <mxPoint x="583" y="2810" as="sourcePoint" />
          </mxGeometry>
        </mxCell>
        <mxCell id="XnMBn2k18ZfYZBOnFWAC-87" value="" style="html=1;verticalAlign=bottom;endArrow=open;dashed=1;endSize=8;" edge="1" parent="1">
          <mxGeometry relative="1" as="geometry">
            <mxPoint x="813" y="2879" as="sourcePoint" />
            <mxPoint x="513" y="2879" as="targetPoint" />
          </mxGeometry>
        </mxCell>
        <mxCell id="XnMBn2k18ZfYZBOnFWAC-88" value="输出权益组合包续订子订单信息" style="html=1;verticalAlign=bottom;endArrow=open;dashed=1;endSize=8;entryX=1.2;entryY=0.387;entryDx=0;entryDy=0;entryPerimeter=0;" edge="1" parent="1">
          <mxGeometry relative="1" as="geometry">
            <mxPoint x="491" y="2950" as="sourcePoint" />
            <mxPoint x="188" y="2950.01" as="targetPoint" />
          </mxGeometry>
        </mxCell>
        <mxCell id="XnMBn2k18ZfYZBOnFWAC-89" value="" style="html=1;points=[];perimeter=orthogonalPerimeter;rounded=0;shadow=0;comic=0;labelBackgroundColor=none;strokeWidth=1;fontFamily=Verdana;fontSize=12;align=center;" vertex="1" parent="1">
          <mxGeometry x="498" y="3060" width="10" height="180" as="geometry" />
        </mxCell>
        <mxCell id="XnMBn2k18ZfYZBOnFWAC-90" value="" style="html=1;points=[];perimeter=orthogonalPerimeter;rounded=0;shadow=0;comic=0;labelBackgroundColor=none;strokeWidth=1;fontFamily=Verdana;fontSize=12;align=center;" vertex="1" parent="1">
          <mxGeometry x="818" y="3080" width="10" height="110" as="geometry" />
        </mxCell>
        <mxCell id="XnMBn2k18ZfYZBOnFWAC-91" value="输入权益组合包续订记录数据" style="html=1;verticalAlign=bottom;endArrow=block;entryX=0;entryY=0;labelBackgroundColor=none;fontFamily=Verdana;fontSize=12;edgeStyle=elbowEdgeStyle;elbow=vertical;" edge="1" parent="1" target="XnMBn2k18ZfYZBOnFWAC-89">
          <mxGeometry relative="1" as="geometry">
            <mxPoint x="188" y="3060" as="sourcePoint" />
          </mxGeometry>
        </mxCell>
        <mxCell id="XnMBn2k18ZfYZBOnFWAC-92" value="将权益组合包续订记录写入数据库" style="html=1;verticalAlign=bottom;endArrow=block;entryX=0;entryY=0;labelBackgroundColor=none;fontFamily=Verdana;fontSize=12;edgeStyle=elbowEdgeStyle;elbow=vertical;" edge="1" parent="1" source="XnMBn2k18ZfYZBOnFWAC-89" target="XnMBn2k18ZfYZBOnFWAC-90">
          <mxGeometry relative="1" as="geometry">
            <mxPoint x="583" y="3080" as="sourcePoint" />
          </mxGeometry>
        </mxCell>
        <mxCell id="XnMBn2k18ZfYZBOnFWAC-93" value="" style="html=1;verticalAlign=bottom;endArrow=open;dashed=1;endSize=8;" edge="1" parent="1">
          <mxGeometry relative="1" as="geometry">
            <mxPoint x="813" y="3149" as="sourcePoint" />
            <mxPoint x="513" y="3149" as="targetPoint" />
          </mxGeometry>
        </mxCell>
        <mxCell id="XnMBn2k18ZfYZBOnFWAC-94" value="输出权益组合包续订记录写入结果" style="html=1;verticalAlign=bottom;endArrow=open;dashed=1;endSize=8;entryX=1.2;entryY=0.387;entryDx=0;entryDy=0;entryPerimeter=0;" edge="1" parent="1">
          <mxGeometry relative="1" as="geometry">
            <mxPoint x="491" y="3220" as="sourcePoint" />
            <mxPoint x="188" y="3220.01" as="targetPoint" />
          </mxGeometry>
        </mxCell>
        <mxCell id="XnMBn2k18ZfYZBOnFWAC-95" value="" style="html=1;points=[];perimeter=orthogonalPerimeter;rounded=0;shadow=0;comic=0;labelBackgroundColor=none;strokeWidth=1;fontFamily=Verdana;fontSize=12;align=center;" vertex="1" parent="1">
          <mxGeometry x="498" y="3350" width="10" height="180" as="geometry" />
        </mxCell>
        <mxCell id="XnMBn2k18ZfYZBOnFWAC-96" value="" style="html=1;points=[];perimeter=orthogonalPerimeter;rounded=0;shadow=0;comic=0;labelBackgroundColor=none;strokeWidth=1;fontFamily=Verdana;fontSize=12;align=center;" vertex="1" parent="1">
          <mxGeometry x="818" y="3370" width="10" height="110" as="geometry" />
        </mxCell>
        <mxCell id="XnMBn2k18ZfYZBOnFWAC-97" value="输入权益组合包续订主订单数据" style="html=1;verticalAlign=bottom;endArrow=block;entryX=0;entryY=0;labelBackgroundColor=none;fontFamily=Verdana;fontSize=12;edgeStyle=elbowEdgeStyle;elbow=vertical;" edge="1" parent="1" target="XnMBn2k18ZfYZBOnFWAC-95">
          <mxGeometry relative="1" as="geometry">
            <mxPoint x="188" y="3350" as="sourcePoint" />
          </mxGeometry>
        </mxCell>
        <mxCell id="XnMBn2k18ZfYZBOnFWAC-98" value="将权益组合包续订主订单写入数据库" style="html=1;verticalAlign=bottom;endArrow=block;entryX=0;entryY=0;labelBackgroundColor=none;fontFamily=Verdana;fontSize=12;edgeStyle=elbowEdgeStyle;elbow=vertical;" edge="1" parent="1" source="XnMBn2k18ZfYZBOnFWAC-95" target="XnMBn2k18ZfYZBOnFWAC-96">
          <mxGeometry relative="1" as="geometry">
            <mxPoint x="583" y="3370" as="sourcePoint" />
          </mxGeometry>
        </mxCell>
        <mxCell id="XnMBn2k18ZfYZBOnFWAC-99" value="" style="html=1;verticalAlign=bottom;endArrow=open;dashed=1;endSize=8;" edge="1" parent="1">
          <mxGeometry relative="1" as="geometry">
            <mxPoint x="813" y="3439" as="sourcePoint" />
            <mxPoint x="513" y="3439" as="targetPoint" />
          </mxGeometry>
        </mxCell>
        <mxCell id="XnMBn2k18ZfYZBOnFWAC-100" value="输出权益组合包主订单写入结果" style="html=1;verticalAlign=bottom;endArrow=open;dashed=1;endSize=8;entryX=1.2;entryY=0.387;entryDx=0;entryDy=0;entryPerimeter=0;" edge="1" parent="1">
          <mxGeometry relative="1" as="geometry">
            <mxPoint x="491" y="3510" as="sourcePoint" />
            <mxPoint x="188" y="3510.01" as="targetPoint" />
          </mxGeometry>
        </mxCell>
        <mxCell id="XnMBn2k18ZfYZBOnFWAC-101" value="" style="html=1;points=[];perimeter=orthogonalPerimeter;rounded=0;shadow=0;comic=0;labelBackgroundColor=none;strokeWidth=1;fontFamily=Verdana;fontSize=12;align=center;" vertex="1" parent="1">
          <mxGeometry x="498" y="3620" width="10" height="180" as="geometry" />
        </mxCell>
        <mxCell id="XnMBn2k18ZfYZBOnFWAC-102" value="" style="html=1;points=[];perimeter=orthogonalPerimeter;rounded=0;shadow=0;comic=0;labelBackgroundColor=none;strokeWidth=1;fontFamily=Verdana;fontSize=12;align=center;" vertex="1" parent="1">
          <mxGeometry x="818" y="3640" width="10" height="110" as="geometry" />
        </mxCell>
        <mxCell id="XnMBn2k18ZfYZBOnFWAC-103" value="输入权益组合包续订子订单数据" style="html=1;verticalAlign=bottom;endArrow=block;entryX=0;entryY=0;labelBackgroundColor=none;fontFamily=Verdana;fontSize=12;edgeStyle=elbowEdgeStyle;elbow=vertical;" edge="1" parent="1" target="XnMBn2k18ZfYZBOnFWAC-101">
          <mxGeometry relative="1" as="geometry">
            <mxPoint x="188" y="3620" as="sourcePoint" />
          </mxGeometry>
        </mxCell>
        <mxCell id="XnMBn2k18ZfYZBOnFWAC-104" value="将权益组合包续订子订单写入数据库" style="html=1;verticalAlign=bottom;endArrow=block;entryX=0;entryY=0;labelBackgroundColor=none;fontFamily=Verdana;fontSize=12;edgeStyle=elbowEdgeStyle;elbow=vertical;" edge="1" parent="1" source="XnMBn2k18ZfYZBOnFWAC-101" target="XnMBn2k18ZfYZBOnFWAC-102">
          <mxGeometry relative="1" as="geometry">
            <mxPoint x="583" y="3640" as="sourcePoint" />
          </mxGeometry>
        </mxCell>
        <mxCell id="XnMBn2k18ZfYZBOnFWAC-105" value="" style="html=1;verticalAlign=bottom;endArrow=open;dashed=1;endSize=8;" edge="1" parent="1">
          <mxGeometry relative="1" as="geometry">
            <mxPoint x="813" y="3709" as="sourcePoint" />
            <mxPoint x="513" y="3709" as="targetPoint" />
          </mxGeometry>
        </mxCell>
        <mxCell id="XnMBn2k18ZfYZBOnFWAC-106" value="输出权益组合包续订子订单写入结果" style="html=1;verticalAlign=bottom;endArrow=open;dashed=1;endSize=8;entryX=1.2;entryY=0.387;entryDx=0;entryDy=0;entryPerimeter=0;" edge="1" parent="1">
          <mxGeometry relative="1" as="geometry">
            <mxPoint x="491" y="3780" as="sourcePoint" />
            <mxPoint x="188" y="3780.01" as="targetPoint" />
          </mxGeometry>
        </mxCell>
        <mxCell id="XnMBn2k18ZfYZBOnFWAC-107" value="" style="html=1;points=[];perimeter=orthogonalPerimeter;rounded=0;shadow=0;comic=0;labelBackgroundColor=none;strokeWidth=1;fontFamily=Verdana;fontSize=12;align=center;" vertex="1" parent="1">
          <mxGeometry x="498" y="3920" width="10" height="180" as="geometry" />
        </mxCell>
        <mxCell id="XnMBn2k18ZfYZBOnFWAC-108" value="" style="html=1;points=[];perimeter=orthogonalPerimeter;rounded=0;shadow=0;comic=0;labelBackgroundColor=none;strokeWidth=1;fontFamily=Verdana;fontSize=12;align=center;" vertex="1" parent="1">
          <mxGeometry x="818" y="3940" width="10" height="110" as="geometry" />
        </mxCell>
        <mxCell id="XnMBn2k18ZfYZBOnFWAC-109" value="输入权益组合包续订子子订单数据" style="html=1;verticalAlign=bottom;endArrow=block;entryX=0;entryY=0;labelBackgroundColor=none;fontFamily=Verdana;fontSize=12;edgeStyle=elbowEdgeStyle;elbow=vertical;" edge="1" parent="1" target="XnMBn2k18ZfYZBOnFWAC-107">
          <mxGeometry relative="1" as="geometry">
            <mxPoint x="188" y="3920" as="sourcePoint" />
          </mxGeometry>
        </mxCell>
        <mxCell id="XnMBn2k18ZfYZBOnFWAC-110" value="将权益组合包续订子子订单写入数据库" style="html=1;verticalAlign=bottom;endArrow=block;entryX=0;entryY=0;labelBackgroundColor=none;fontFamily=Verdana;fontSize=12;edgeStyle=elbowEdgeStyle;elbow=vertical;" edge="1" parent="1" source="XnMBn2k18ZfYZBOnFWAC-107" target="XnMBn2k18ZfYZBOnFWAC-108">
          <mxGeometry relative="1" as="geometry">
            <mxPoint x="583" y="3940" as="sourcePoint" />
          </mxGeometry>
        </mxCell>
        <mxCell id="XnMBn2k18ZfYZBOnFWAC-111" value="" style="html=1;verticalAlign=bottom;endArrow=open;dashed=1;endSize=8;" edge="1" parent="1">
          <mxGeometry relative="1" as="geometry">
            <mxPoint x="813" y="4009" as="sourcePoint" />
            <mxPoint x="513" y="4009" as="targetPoint" />
          </mxGeometry>
        </mxCell>
        <mxCell id="XnMBn2k18ZfYZBOnFWAC-112" value="输出权益组合包续订子子订单写入结果" style="html=1;verticalAlign=bottom;endArrow=open;dashed=1;endSize=8;entryX=1.2;entryY=0.387;entryDx=0;entryDy=0;entryPerimeter=0;" edge="1" parent="1">
          <mxGeometry relative="1" as="geometry">
            <mxPoint x="491" y="4080" as="sourcePoint" />
            <mxPoint x="188" y="4080.01" as="targetPoint" />
          </mxGeometry>
        </mxCell>
        <mxCell id="XnMBn2k18ZfYZBOnFWAC-113" value="" style="html=1;points=[];perimeter=orthogonalPerimeter;rounded=0;shadow=0;comic=0;labelBackgroundColor=none;strokeWidth=1;fontFamily=Verdana;fontSize=12;align=center;" vertex="1" parent="1">
          <mxGeometry x="498" y="4210" width="10" height="180" as="geometry" />
        </mxCell>
        <mxCell id="XnMBn2k18ZfYZBOnFWAC-114" value="" style="html=1;points=[];perimeter=orthogonalPerimeter;rounded=0;shadow=0;comic=0;labelBackgroundColor=none;strokeWidth=1;fontFamily=Verdana;fontSize=12;align=center;" vertex="1" parent="1">
          <mxGeometry x="818" y="4230" width="10" height="110" as="geometry" />
        </mxCell>
        <mxCell id="XnMBn2k18ZfYZBOnFWAC-115" value="输入权益组合包续订轨迹数据" style="html=1;verticalAlign=bottom;endArrow=block;entryX=0;entryY=0;labelBackgroundColor=none;fontFamily=Verdana;fontSize=12;edgeStyle=elbowEdgeStyle;elbow=vertical;" edge="1" parent="1" target="XnMBn2k18ZfYZBOnFWAC-113">
          <mxGeometry relative="1" as="geometry">
            <mxPoint x="188" y="4210" as="sourcePoint" />
          </mxGeometry>
        </mxCell>
        <mxCell id="XnMBn2k18ZfYZBOnFWAC-116" value="将权益组合包续订轨迹写入数据库" style="html=1;verticalAlign=bottom;endArrow=block;entryX=0;entryY=0;labelBackgroundColor=none;fontFamily=Verdana;fontSize=12;edgeStyle=elbowEdgeStyle;elbow=vertical;" edge="1" parent="1" source="XnMBn2k18ZfYZBOnFWAC-113" target="XnMBn2k18ZfYZBOnFWAC-114">
          <mxGeometry relative="1" as="geometry">
            <mxPoint x="583" y="4230" as="sourcePoint" />
          </mxGeometry>
        </mxCell>
        <mxCell id="XnMBn2k18ZfYZBOnFWAC-117" value="" style="html=1;verticalAlign=bottom;endArrow=open;dashed=1;endSize=8;" edge="1" parent="1">
          <mxGeometry relative="1" as="geometry">
            <mxPoint x="813" y="4299" as="sourcePoint" />
            <mxPoint x="513" y="4299" as="targetPoint" />
          </mxGeometry>
        </mxCell>
        <mxCell id="XnMBn2k18ZfYZBOnFWAC-118" value="输出权益组合包续订轨迹写入结果" style="html=1;verticalAlign=bottom;endArrow=open;dashed=1;endSize=8;entryX=1.2;entryY=0.387;entryDx=0;entryDy=0;entryPerimeter=0;" edge="1" parent="1">
          <mxGeometry relative="1" as="geometry">
            <mxPoint x="491" y="4370" as="sourcePoint" />
            <mxPoint x="188" y="4370.01" as="targetPoint" />
          </mxGeometry>
        </mxCell>
      </root>
    </mxGraphModel>
  </diagram>
</mxfile>
